# xmcd
#
# Track frame offsets:
#	150
#	14687
#	29445
#	43230
#	57877
#	71992
#	86230
#	99697
#	112622
#	126557
#	141657
#	158010
#	173112
#	188072
#
# Disc length: 2692 seconds
#
# Revision: 2
# Processed by: cddbd v1.5.2PL0 Copyright (c) Steve Scherf et al.
# Submitted via: audiograbber 1.83.01
#
DISCID=cf0a820e
DTITLE=Deutsche Schlager Fracht - Folge 12 (LC 4285)
DYEAR=1900
DGENRE=Deutsch
TTITLE0=Siw Malmkvist - Amore Bambini E Pasta
TTITLE1=Mel Jersey - Die Erinnerung ist alles was ...
TTITLE2=Collage - Ganz Nah
TTITLE3=Chris Marlow - Schenk mir Liebe
TTITLE4=Marco - Du wirst brennen heute Nacht
TTITLE5=Rene Pascal - Lady Blue
TTITLE6=Christiane Berger - Wenn Du einmal weinst um mich
TTITLE7=Udo Klein - Nachgedacht
TTITLE8=Picadilly Sound Orchester - Nugata
TTITLE9=Jan-Dirk - 1000 Good-Bye's (Good -Bye Anna)
TTITLE10=Tilo Bärtl - Durch das ganze Leben
TTITLE11=Peter Wagner - Eine Handvoll Sonnenschein
TTITLE12=Markus Agosti - Denn sie wissen nicht was ...
TTITLE13=Wilfried Schäfer - Rot ist die Liebe
EXTD=
EXTT0=
EXTT1=
EXTT2=
EXTT3=
EXTT4=
EXTT5=
EXTT6=
EXTT7=
EXTT8=
EXTT9=
EXTT10=
EXTT11=
EXTT12=
EXTT13=
PLAYORDER=
